<?xml version="1.0" standalone="no"?><!DOCTYPE svg PUBLIC "-//W3C//DTD SVG 1.1//EN" "http://www.w3.org/Graphics/SVG/1.1/DTD/svg11.dtd"><svg height="1024" node-id="1" sillyvg="true" template-height="1024" template-width="1630" version="1.1" viewBox="0 0 1630 1024" width="1630" xmlns="http://www.w3.org/2000/svg" xmlns:xlink="http://www.w3.org/1999/xlink"><defs node-id="27"></defs><g node-id="29"><path d="M 1517.30 464.81 C 1517.30 578.20 1472.40 686.96 1392.47 767.14 C 1312.55 847.33 1204.14 892.37 1091.11 892.37 C 978.08 892.37 869.68 847.33 789.75 767.14 C 709.83 686.96 664.93 578.20 664.93 464.81 C 664.93 351.41 709.83 242.65 789.75 162.47 C 869.68 82.28 978.08 37.24 1091.11 37.24 C 1204.14 37.24 1312.55 82.28 1392.47 162.47 C 1472.40 242.65 1517.30 351.41 1517.30 464.81 Z" fill="#eff0f9" fill-rule="evenodd" group-id="1" id="椭圆形" node-id="6" stroke="none" target-height="855.13" target-width="852.37006" target-x="664.93" target-y="37.24"></path><path d="M 294.98 314.83 L 294.98 156.31 L 1196.80 182.80 C 1261.08 184.69 1312.21 237.34 1312.21 301.65 L 1312.21 948.22 L 1312.21 948.22 L 416.20 965.77 C 350.55 967.06 296.29 914.88 295.00 849.22 C 294.98 848.45 294.98 847.67 294.98 846.90" fill="#ffffff" fill-rule="evenodd" group-id="1" id="矩形" node-id="7" stroke="#5b5b5d" stroke-linecap="butt" stroke-width="9.908108" target-height="810.75" target-width="1017.23" target-x="294.98" target-y="156.31"></path><path d="M 377.83 314.49 L 1193.70 345.57 L 1232.10 802.27 L 377.83 802.27 Z" fill="#eff0f9" fill-rule="evenodd" group-id="1" id="矩形" node-id="8" stroke="none" target-height="487.78003" target-width="854.27" target-x="377.83" target-y="314.49"></path><path d="M 696.85 393.91 C 697.15 393.91 697.44 393.92 697.74 393.93 L 697.74 393.93 L 1123.55 413.79 C 1128.60 414.03 1133.12 416.23 1136.37 419.64 C 1139.62 423.04 1141.61 427.66 1141.61 432.71 L 1141.61 432.71 L 1141.61 502.41 C 1141.61 507.64 1139.49 512.38 1136.06 515.81 C 1132.63 519.23 1127.90 521.35 1122.67 521.35 C 1122.37 521.35 1122.08 521.35 1121.78 521.33 L 1121.78 521.33 L 695.97 501.47 C 690.92 501.24 686.40 499.04 683.15 495.63 C 679.90 492.22 677.91 487.61 677.91 482.55 L 677.91 482.55 L 677.91 412.85 C 677.91 407.62 680.03 402.89 683.46 399.46 C 686.89 396.03 691.62 393.91 696.85 393.91 Z" fill="#ffffff" fill-rule="evenodd" group-id="1" id="矩形" node-id="9" stroke="#5b5b5d" stroke-linecap="butt" stroke-width="5.412262" target-height="127.43997" target-width="463.7" target-x="677.91" target-y="393.91"></path><path d="M 1122.67 559.20 C 1127.90 559.20 1132.63 561.32 1136.06 564.74 C 1139.49 568.17 1141.61 572.91 1141.61 578.14 L 1141.61 578.14 L 1141.61 647.17 C 1141.61 652.40 1139.49 657.14 1136.06 660.57 C 1132.63 663.99 1127.90 666.11 1122.67 666.11 C 1122.46 666.11 1122.26 666.11 1122.06 666.10 L 1122.06 666.10 L 696.24 652.35 C 691.13 652.19 686.55 650.01 683.24 646.60 C 679.94 643.18 677.91 638.53 677.91 633.42 L 677.91 633.42 L 677.91 578.14 C 677.91 572.91 680.03 568.17 683.46 564.74 C 686.89 561.32 691.62 559.20 696.85 559.20 L 696.85 559.20 Z" fill="#ffffff" fill-rule="evenodd" group-id="1" id="矩形备份-21" node-id="10" stroke="#5b5b5d" stroke-linecap="butt" stroke-width="5.412262" target-height="106.90997" target-width="463.7" target-x="677.91" target-y="559.2"></path><g node-id="30"><path d="M 1144.32 760.69 L 675.20 760.69 L 675.20 873.74 L 1144.32 858.59 Z" fill="#3681fd" fill-rule="evenodd" group-id="1,2" id="矩形备份-22" node-id="11" stroke="none" target-height="113.04999" target-width="469.11993" target-x="675.2" target-y="760.69"></path></g><path d="M 294.98 576.27 C 401.34 576.27 487.56 654.86 487.56 751.80 C 430.08 780.49 365.88 796.44 294.98 799.65 C 224.07 802.87 159.88 795.69 102.39 778.13 C 102.39 681.19 188.62 576.27 294.98 576.27 Z M 294.98 586.91 C 232.73 586.91 182.32 536.26 182.32 473.71 C 182.32 411.17 232.73 360.51 294.98 360.51 C 357.22 360.51 407.64 411.17 407.64 473.71 C 407.64 536.26 357.22 586.91 294.98 586.91 Z" fill="#3681fd" fill-rule="nonzero" group-id="1" id="形状" node-id="12" stroke="none" target-height="442.36" target-width="385.16998" target-x="102.39" target-y="360.51"></path><path d="M 295.46 273.70 L 1397.32 315.49 L 1396.95 325.39 L 295.08 283.60 Z" fill="#5b5b5d" fill-rule="nonzero" group-id="1" id="路径-2" node-id="13" stroke="none" target-height="51.690002" target-width="1102.24" target-x="295.08" target-y="273.7"></path><path d="M 938.97 220.65 C 937.99 221.56 937.04 222.55 936.11 223.60 C 931.69 228.64 929.22 235.09 929.14 241.79 C 928.94 257.28 941.30 270.00 956.74 270.19 L 958.70 270.13 C 972.17 269.00 986.78 254.97 989.81 243.40 C 996.64 217.35 960.20 200.76 938.97 220.65 Z M 981.49 241.21 C 979.34 249.44 967.58 260.72 958.18 261.51 L 956.64 261.56 C 946.16 261.43 937.61 252.62 937.74 241.90 C 937.80 237.26 939.51 232.79 942.57 229.31 C 943.32 228.46 944.07 227.68 944.84 226.96 C 959.83 212.92 984.59 223.64 981.78 239.88 L 981.49 241.21 Z" fill="#555555" fill-rule="nonzero" group-id="1" id="路径-3" node-id="14" stroke="none" target-height="69.43001" target-width="67.70001" target-x="928.94" target-y="200.76"></path><path d="M 620.29 448.57 L 619.99 454.19 L 619.18 459.55 L 617.86 464.69 L 616.05 469.64 L 613.75 474.40 L 611.07 478.84 L 607.98 482.98 L 604.49 486.84 L 600.64 490.34 L 596.52 493.44 L 592.09 496.13 L 587.34 498.44 L 582.41 500.26 L 577.29 501.58 L 571.94 502.39 L 566.34 502.69 L 560.74 502.39 L 555.39 501.58 L 550.27 500.26 L 545.34 498.44 L 540.59 496.13 L 536.17 493.44 L 532.04 490.34 L 528.20 486.84 L 524.70 482.98 L 521.62 478.84 L 518.93 474.40 L 516.63 469.64 L 514.82 464.69 L 513.51 459.55 L 512.69 454.19 L 512.39 448.57 L 512.69 442.95 L 513.51 437.58 L 514.82 432.44 L 516.63 427.50 L 518.93 422.73 L 521.62 418.29 L 524.70 414.15 L 528.20 410.30 L 532.04 406.79 L 536.17 403.70 L 540.59 401.00 L 545.34 398.70 L 550.27 396.88 L 555.39 395.56 L 560.74 394.75 L 566.34 394.45 L 571.94 394.75 L 577.29 395.56 L 582.41 396.88 L 587.34 398.70 L 592.09 401.00 L 596.52 403.70 L 600.64 406.79 L 604.49 410.30 L 607.98 414.15 L 611.07 418.29 L 613.75 422.73 L 616.05 427.50 L 617.86 432.44 L 619.18 437.58 L 619.99 442.95 L 620.29 448.57 Z" fill="#ffffff" fill-rule="evenodd" group-id="1,3" id="椭圆形" node-id="16" stroke="none" target-height="108.23999" target-width="107.89996" target-x="512.39" target-y="394.45"></path><path d="M 566.34 451.30 L 570.05 450.96 L 573.45 450.02 L 576.61 448.51 L 579.47 446.48 L 581.89 444.05 L 583.92 441.18 L 585.42 438.02 L 586.35 434.60 L 586.70 430.88 L 586.35 427.16 L 585.42 423.74 L 583.92 420.58 L 581.89 417.71 L 579.47 415.28 L 576.61 413.25 L 573.45 411.74 L 570.05 410.80 L 566.34 410.46 L 562.63 410.80 L 559.23 411.74 L 556.08 413.25 L 553.22 415.28 L 550.79 417.71 L 548.77 420.58 L 547.26 423.74 L 546.33 427.16 L 545.99 430.88 L 546.33 434.60 L 547.26 438.02 L 548.77 441.18 L 550.79 444.05 L 553.22 446.48 L 556.08 448.51 L 559.23 450.02 L 562.63 450.96 L 566.34 451.30 Z M 566.34 417.60 L 568.76 417.83 L 570.97 418.44 L 573.02 419.42 L 574.88 420.74 L 576.46 422.32 L 577.78 424.19 L 578.76 426.25 L 579.36 428.47 L 579.59 430.89 L 579.36 433.32 L 578.76 435.54 L 577.78 437.59 L 576.46 439.46 L 574.88 441.04 L 573.02 442.36 L 570.97 443.34 L 568.76 443.95 L 566.34 444.17 L 563.93 443.94 L 561.71 443.34 L 559.66 442.35 L 557.80 441.03 L 556.22 439.45 L 554.91 437.58 L 553.92 435.52 L 553.32 433.30 L 553.09 430.88 L 553.32 428.46 L 553.92 426.24 L 554.91 424.18 L 556.22 422.32 L 557.80 420.74 L 559.66 419.42 L 561.71 418.43 L 563.93 417.83 L 566.34 417.60 L 566.34 417.60 Z" fill="#5b5b5d" fill-rule="nonzero" group-id="1,3" id="形状" node-id="17" stroke="none" target-height="40.839996" target-width="40.710022" target-x="545.99" target-y="410.46"></path><path d="M 620.29 448.57 L 619.99 442.96 L 619.18 437.60 L 617.86 432.47 L 616.04 427.52 L 613.74 422.76 L 611.05 418.32 L 607.97 414.18 L 604.47 410.32 L 600.62 406.81 L 596.49 403.71 L 592.07 401.01 L 587.32 398.71 L 582.39 396.88 L 577.27 395.56 L 571.93 394.75 L 566.34 394.45 L 560.75 394.75 L 555.41 395.56 L 550.29 396.88 L 545.37 398.71 L 540.62 401.01 L 536.19 403.71 L 532.06 406.81 L 528.22 410.32 L 524.72 414.18 L 521.63 418.32 L 518.94 422.76 L 516.64 427.52 L 514.82 432.47 L 513.51 437.60 L 512.69 442.96 L 512.39 448.57 L 512.72 454.43 L 513.65 460.14 L 515.19 465.73 L 517.31 471.13 L 519.99 476.24 L 523.23 481.10 L 523.20 481.15 L 524.80 483.09 L 528.03 486.99 L 528.16 486.78 L 532.14 490.41 L 536.36 493.56 L 540.85 496.27 L 545.61 498.55 L 550.57 500.34 L 555.67 501.63 L 560.91 502.41 L 566.34 502.69 L 571.77 502.41 L 577.02 501.63 L 582.11 500.34 L 587.07 498.55 L 591.84 496.27 L 596.33 493.56 L 600.56 490.41 L 604.54 486.78 L 604.67 486.99 L 607.90 483.09 L 609.50 481.15 L 609.47 481.10 L 612.71 476.24 L 615.38 471.13 L 617.50 465.73 L 619.04 460.14 L 619.97 454.43 L 620.29 448.57 Z M 566.34 401.58 L 571.20 401.84 L 575.83 402.55 L 580.28 403.69 L 584.55 405.28 L 588.68 407.28 L 592.52 409.62 L 596.10 412.31 L 599.44 415.36 L 602.48 418.71 L 605.16 422.30 L 607.50 426.16 L 609.49 430.30 L 611.07 434.59 L 612.21 439.05 L 612.92 443.70 L 613.18 448.57 L 612.95 453.21 L 612.28 457.76 L 611.16 462.21 L 609.62 466.54 L 607.67 470.67 L 605.31 474.63 L 604.88 474.07 L 604.54 473.63 L 603.85 472.77 L 603.59 472.44 L 602.60 471.30 L 602.42 471.11 L 601.58 470.20 L 601.21 469.82 L 600.52 469.13 L 600.09 468.71 L 599.43 468.09 L 598.96 467.67 L 598.30 467.07 L 597.83 466.67 L 597.15 466.10 L 596.67 465.71 L 595.97 465.16 L 595.49 464.79 L 594.72 464.23 L 594.29 463.90 L 593.34 463.27 L 593.05 463.07 L 591.80 462.27 L 591.48 462.07 L 590.52 461.51 L 590.04 461.24 L 589.21 460.79 L 588.68 460.51 L 587.88 460.10 L 587.32 459.83 L 586.52 459.45 L 585.94 459.20 L 585.13 458.84 L 584.56 458.60 L 583.72 458.27 L 583.17 458.05 L 582.25 457.72 L 581.77 457.55 L 580.56 457.15 L 580.35 457.08 L 578.92 456.67 L 578.49 456.56 L 577.47 456.31 L 576.92 456.18 L 576.01 455.98 L 575.40 455.87 L 574.52 455.70 L 573.90 455.60 L 573.03 455.47 L 572.40 455.39 L 571.51 455.29 L 570.89 455.22 L 569.97 455.15 L 569.38 455.11 L 568.37 455.05 L 567.86 455.02 L 566.34 455.00 L 564.82 455.02 L 564.32 455.05 L 563.31 455.11 L 562.72 455.15 L 561.79 455.22 L 561.17 455.29 L 560.29 455.39 L 559.65 455.47 L 558.78 455.60 L 558.17 455.70 L 557.28 455.87 L 556.68 455.98 L 555.76 456.18 L 555.22 456.31 L 554.19 456.56 L 553.77 456.67 L 552.34 457.08 L 552.14 457.15 L 550.92 457.55 L 550.44 457.72 L 549.51 458.05 L 548.96 458.27 L 548.12 458.60 L 547.56 458.84 L 546.74 459.20 L 546.18 459.45 L 545.38 459.83 L 544.83 460.10 L 544.03 460.51 L 543.51 460.79 L 542.68 461.25 L 542.22 461.52 L 541.25 462.10 L 540.94 462.28 L 539.68 463.09 L 539.40 463.28 L 538.44 463.93 L 538.01 464.24 L 537.23 464.81 L 536.76 465.17 L 536.04 465.74 L 535.56 466.13 L 534.87 466.69 L 534.41 467.10 L 533.75 467.69 L 533.30 468.10 L 532.64 468.74 L 532.22 469.15 L 531.53 469.85 L 531.16 470.22 L 530.31 471.15 L 530.14 471.33 L 529.14 472.47 L 528.89 472.78 L 528.19 473.66 L 527.85 474.09 L 527.40 474.67 L 525.04 470.71 L 523.09 466.57 L 521.55 462.24 L 520.44 457.79 L 519.76 453.25 L 519.53 448.61 L 519.79 443.73 L 520.49 439.07 L 521.63 434.61 L 523.20 430.31 L 525.20 426.17 L 527.53 422.31 L 530.21 418.71 L 533.24 415.36 L 536.58 412.31 L 540.16 409.62 L 544.01 407.28 L 548.13 405.28 L 552.41 403.69 L 556.85 402.55 L 561.49 401.84 L 566.34 401.58 L 566.34 401.58 Z M 563.81 495.49 L 562.98 495.42 L 561.30 495.28 L 560.32 495.15 L 558.81 494.94 L 557.77 494.74 L 556.35 494.46 L 555.30 494.21 L 553.94 493.85 L 552.88 493.54 L 551.55 493.12 L 550.51 492.75 L 549.22 492.28 L 548.19 491.85 L 546.93 491.30 L 545.93 490.84 L 544.69 490.22 L 543.72 489.70 L 542.52 488.99 L 541.59 488.43 L 540.39 487.65 L 539.52 487.06 L 538.34 486.19 L 537.53 485.57 L 536.33 484.58 L 535.60 483.96 L 534.35 482.82 L 533.75 482.25 L 532.20 480.68 L 531.98 480.45 L 531.95 480.42 L 532.01 480.34 L 532.32 479.90 L 532.77 479.25 L 533.10 478.80 L 533.57 478.19 L 533.92 477.74 L 534.38 477.17 L 534.76 476.73 L 535.24 476.18 L 535.63 475.74 L 536.12 475.21 L 536.53 474.78 L 537.05 474.26 L 537.46 473.85 L 537.99 473.35 L 538.41 472.95 L 538.96 472.46 L 539.38 472.09 L 539.96 471.61 L 540.39 471.26 L 541.00 470.80 L 541.43 470.47 L 542.07 470.01 L 542.49 469.71 L 543.18 469.23 L 543.55 468.98 L 544.38 468.46 L 544.65 468.29 L 546.91 466.99 L 547.25 466.81 L 548.06 466.38 L 548.50 466.17 L 549.24 465.82 L 549.72 465.61 L 550.42 465.30 L 550.93 465.09 L 551.63 464.81 L 552.17 464.61 L 552.87 464.35 L 553.40 464.17 L 554.11 463.95 L 554.65 463.78 L 555.36 463.58 L 555.92 463.42 L 556.62 463.24 L 557.18 463.10 L 557.88 462.94 L 558.46 462.83 L 559.18 462.71 L 559.75 462.61 L 560.48 462.49 L 561.05 462.41 L 561.80 462.32 L 562.35 462.27 L 563.15 462.20 L 563.67 462.16 L 564.56 462.11 L 564.99 462.10 L 566.31 462.07 L 567.63 462.10 L 568.08 462.11 L 568.97 462.16 L 569.49 462.20 L 570.29 462.27 L 570.84 462.32 L 571.60 462.41 L 572.16 462.49 L 572.89 462.61 L 573.46 462.71 L 574.18 462.83 L 574.76 462.94 L 575.46 463.10 L 576.04 463.24 L 576.74 463.42 L 577.30 463.58 L 578.00 463.78 L 578.55 463.95 L 579.25 464.17 L 579.80 464.35 L 580.49 464.61 L 581.02 464.81 L 581.73 465.09 L 582.23 465.30 L 582.93 465.61 L 583.41 465.82 L 584.16 466.17 L 584.59 466.38 L 585.41 466.81 L 585.74 466.99 L 588.01 468.29 L 588.27 468.46 L 589.10 468.98 L 589.48 469.23 L 590.18 469.71 L 590.59 470.01 L 591.22 470.47 L 591.64 470.80 L 592.25 471.26 L 592.68 471.61 L 593.26 472.09 L 593.68 472.46 L 594.24 472.95 L 594.66 473.33 L 595.20 473.84 L 595.61 474.25 L 596.13 474.77 L 596.52 475.18 L 597.02 475.73 L 597.40 476.15 L 597.90 476.71 L 598.26 477.15 L 598.74 477.74 L 599.09 478.18 L 599.55 478.80 L 599.88 479.24 L 600.34 479.90 L 600.64 480.32 L 600.69 480.41 L 600.66 480.44 L 600.44 480.68 L 598.91 482.25 L 598.29 482.83 L 597.07 483.96 L 596.31 484.59 L 595.14 485.55 L 594.30 486.19 L 593.15 487.03 L 592.23 487.65 L 591.07 488.41 L 590.11 488.99 L 588.93 489.67 L 587.93 490.20 L 586.73 490.81 L 585.70 491.29 L 584.46 491.82 L 583.41 492.25 L 582.15 492.73 L 581.08 493.09 L 579.79 493.50 L 578.70 493.81 L 577.37 494.15 L 576.30 494.40 L 574.90 494.67 L 573.84 494.87 L 572.35 495.08 L 571.36 495.21 L 569.69 495.35 L 568.84 495.42 L 566.31 495.49 L 563.81 495.49 L 563.81 495.49 Z" fill="#5b5b5d" fill-rule="nonzero" group-id="1,3" id="形状" node-id="18" stroke="none" target-height="108.23999" target-width="107.89996" target-x="512.39" target-y="394.45"></path><path d="M 641.87 610.94 L 641.57 616.56 L 640.76 621.92 L 639.44 627.06 L 637.63 632.00 L 635.33 636.77 L 632.64 641.21 L 629.56 645.35 L 626.07 649.21 L 622.22 652.71 L 618.10 655.81 L 613.67 658.50 L 608.92 660.81 L 603.99 662.63 L 598.87 663.94 L 593.52 664.76 L 587.92 665.06 L 582.32 664.76 L 576.97 663.94 L 571.85 662.63 L 566.92 660.81 L 562.17 658.50 L 557.74 655.81 L 553.62 652.71 L 549.77 649.21 L 546.28 645.35 L 543.20 641.21 L 540.51 636.77 L 538.21 632.00 L 536.40 627.06 L 535.09 621.92 L 534.27 616.56 L 533.97 610.94 L 534.27 605.32 L 535.09 599.95 L 536.40 594.81 L 538.21 589.87 L 540.51 585.10 L 543.20 580.66 L 546.28 576.52 L 549.77 572.67 L 553.62 569.16 L 557.74 566.07 L 562.17 563.37 L 566.92 561.07 L 571.85 559.25 L 576.97 557.93 L 582.32 557.11 L 587.92 556.81 L 593.52 557.11 L 598.87 557.93 L 603.99 559.25 L 608.92 561.07 L 613.67 563.37 L 618.10 566.07 L 622.22 569.16 L 626.07 572.67 L 629.56 576.52 L 632.64 580.66 L 635.33 585.10 L 637.63 589.87 L 639.44 594.81 L 640.76 599.95 L 641.57 605.32 L 641.87 610.94 Z" fill="#ffffff" fill-rule="evenodd" group-id="1,4" id="椭圆形" node-id="20" stroke="none" target-height="108.25" target-width="107.900024" target-x="533.97" target-y="556.81"></path><path d="M 587.92 613.67 L 591.63 613.32 L 595.03 612.39 L 598.19 610.88 L 601.04 608.85 L 603.47 606.41 L 605.49 603.55 L 607.00 600.38 L 607.93 596.97 L 608.28 593.25 L 607.93 589.53 L 607.00 586.11 L 605.49 582.95 L 603.47 580.08 L 601.04 577.65 L 598.19 575.62 L 595.03 574.10 L 591.63 573.17 L 587.92 572.82 L 584.21 573.17 L 580.81 574.10 L 577.65 575.62 L 574.80 577.65 L 572.37 580.08 L 570.35 582.95 L 568.84 586.11 L 567.91 589.53 L 567.56 593.25 L 567.91 596.97 L 568.84 600.38 L 570.35 603.55 L 572.37 606.41 L 574.80 608.85 L 577.65 610.88 L 580.81 612.39 L 584.21 613.32 L 587.92 613.67 Z M 587.92 579.97 L 590.34 580.20 L 592.55 580.80 L 594.60 581.79 L 596.46 583.11 L 598.04 584.69 L 599.36 586.56 L 600.34 588.62 L 600.94 590.84 L 601.17 593.26 L 600.94 595.68 L 600.34 597.90 L 599.36 599.96 L 598.04 601.83 L 596.46 603.41 L 594.60 604.73 L 592.55 605.71 L 590.34 606.31 L 587.92 606.54 L 585.51 606.31 L 583.29 605.71 L 581.24 604.72 L 579.38 603.40 L 577.80 601.82 L 576.48 599.95 L 575.50 597.89 L 574.90 595.67 L 574.67 593.25 L 574.90 590.83 L 575.50 588.60 L 576.48 586.55 L 577.80 584.68 L 579.38 583.10 L 581.24 581.78 L 583.29 580.80 L 585.51 580.20 L 587.92 579.97 L 587.92 579.97 Z" fill="#5b5b5d" fill-rule="nonzero" group-id="1,4" id="形状" node-id="21" stroke="none" target-height="40.849976" target-width="40.72003" target-x="567.56" target-y="572.82"></path><path d="M 641.87 610.94 L 641.57 605.33 L 640.76 599.97 L 639.44 594.83 L 637.62 589.89 L 635.32 585.13 L 632.63 580.68 L 629.54 576.54 L 626.05 572.69 L 622.20 569.18 L 618.07 566.08 L 613.65 563.38 L 608.90 561.07 L 603.97 559.25 L 598.85 557.93 L 593.51 557.11 L 587.92 556.81 L 582.33 557.11 L 576.99 557.93 L 571.87 559.25 L 566.94 561.07 L 562.20 563.38 L 557.77 566.08 L 553.64 569.18 L 549.79 572.69 L 546.30 576.54 L 543.21 580.68 L 540.52 585.13 L 538.22 589.89 L 536.40 594.83 L 535.09 599.97 L 534.27 605.33 L 533.97 610.94 L 534.29 616.80 L 535.23 622.51 L 536.77 628.10 L 538.89 633.50 L 541.56 638.61 L 544.81 643.47 L 544.78 643.52 L 546.38 645.45 L 549.61 649.36 L 549.74 649.15 L 553.72 652.77 L 557.94 655.93 L 562.42 658.64 L 567.19 660.91 L 572.15 662.71 L 577.24 663.99 L 582.49 664.78 L 587.92 665.06 L 593.35 664.78 L 598.60 663.99 L 603.69 662.71 L 608.65 660.91 L 613.42 658.64 L 617.91 655.93 L 622.13 652.77 L 626.12 649.15 L 626.25 649.36 L 629.48 645.45 L 631.08 643.52 L 631.05 643.47 L 634.29 638.61 L 636.96 633.50 L 639.08 628.10 L 640.62 622.51 L 641.55 616.80 L 641.87 610.94 Z M 587.92 563.95 L 592.77 564.21 L 597.41 564.91 L 601.86 566.06 L 606.13 567.64 L 610.26 569.65 L 614.10 571.99 L 617.68 574.68 L 621.02 577.73 L 624.06 581.08 L 626.74 584.67 L 629.07 588.53 L 631.07 592.66 L 632.65 596.96 L 633.79 601.41 L 634.50 606.07 L 634.76 610.94 L 634.53 615.58 L 633.85 620.12 L 632.74 624.58 L 631.20 628.91 L 629.25 633.04 L 626.89 637.00 L 626.46 636.43 L 626.12 636.00 L 625.43 635.14 L 625.16 634.81 L 624.18 633.67 L 624.00 633.47 L 623.16 632.57 L 622.79 632.19 L 622.10 631.50 L 621.67 631.08 L 621.01 630.46 L 620.54 630.03 L 619.88 629.44 L 619.40 629.03 L 618.73 628.47 L 618.25 628.08 L 617.55 627.53 L 617.07 627.16 L 616.30 626.60 L 615.86 626.27 L 614.92 625.64 L 614.63 625.44 L 613.38 624.64 L 613.05 624.44 L 612.10 623.87 L 611.62 623.61 L 610.79 623.16 L 610.26 622.87 L 609.46 622.47 L 608.90 622.20 L 608.10 621.82 L 607.52 621.56 L 606.70 621.21 L 606.14 620.97 L 605.30 620.63 L 604.75 620.42 L 603.82 620.08 L 603.35 619.91 L 602.14 619.52 L 601.93 619.45 L 600.49 619.04 L 600.07 618.93 L 599.05 618.67 L 598.50 618.55 L 597.59 618.35 L 596.98 618.24 L 596.10 618.07 L 595.48 617.97 L 594.61 617.84 L 593.98 617.76 L 593.09 617.66 L 592.47 617.59 L 591.55 617.52 L 590.96 617.48 L 589.94 617.42 L 589.44 617.39 L 587.92 617.36 L 586.40 617.39 L 585.90 617.42 L 584.89 617.48 L 584.30 617.52 L 583.37 617.59 L 582.75 617.66 L 581.87 617.76 L 581.23 617.84 L 580.36 617.97 L 579.74 618.07 L 578.86 618.24 L 578.26 618.35 L 577.34 618.55 L 576.79 618.67 L 575.77 618.93 L 575.35 619.04 L 573.91 619.45 L 573.72 619.52 L 572.50 619.91 L 572.02 620.08 L 571.09 620.42 L 570.54 620.63 L 569.70 620.97 L 569.14 621.21 L 568.32 621.56 L 567.76 621.82 L 566.96 622.20 L 566.41 622.47 L 565.61 622.87 L 565.09 623.16 L 564.26 623.62 L 563.80 623.89 L 562.83 624.47 L 562.52 624.65 L 561.26 625.45 L 560.98 625.65 L 560.02 626.30 L 559.58 626.61 L 558.81 627.17 L 558.33 627.54 L 557.62 628.10 L 557.14 628.50 L 556.45 629.06 L 555.99 629.47 L 555.33 630.06 L 554.88 630.47 L 554.22 631.11 L 553.80 631.51 L 553.11 632.22 L 552.74 632.59 L 551.89 633.52 L 551.72 633.70 L 550.72 634.84 L 550.47 635.15 L 549.76 636.02 L 549.43 636.46 L 548.98 637.04 L 546.62 633.08 L 544.67 628.94 L 543.13 624.61 L 542.02 620.16 L 541.34 615.62 L 541.11 610.98 L 541.37 606.10 L 542.07 601.44 L 543.21 596.98 L 544.78 592.68 L 546.78 588.54 L 549.11 584.68 L 551.79 581.08 L 554.82 577.73 L 558.16 574.68 L 561.74 571.99 L 565.59 569.65 L 569.71 567.65 L 573.99 566.06 L 578.43 564.91 L 583.07 564.21 L 587.92 563.95 L 587.92 563.95 Z M 585.39 657.86 L 584.56 657.79 L 582.88 657.65 L 581.89 657.52 L 580.39 657.31 L 579.35 657.11 L 577.93 656.83 L 576.88 656.57 L 575.52 656.22 L 574.46 655.91 L 573.13 655.49 L 572.09 655.12 L 570.80 654.64 L 569.77 654.22 L 568.51 653.67 L 567.51 653.21 L 566.27 652.59 L 565.30 652.06 L 564.09 651.36 L 563.17 650.80 L 561.97 650.02 L 561.10 649.43 L 559.92 648.55 L 559.11 647.93 L 557.91 646.95 L 557.18 646.33 L 555.93 645.19 L 555.33 644.62 L 553.78 643.04 L 553.56 642.82 L 553.53 642.79 L 553.59 642.71 L 553.89 642.27 L 554.34 641.62 L 554.68 641.17 L 555.15 640.56 L 555.50 640.11 L 555.96 639.53 L 556.34 639.10 L 556.82 638.55 L 557.21 638.11 L 557.70 637.57 L 558.11 637.15 L 558.63 636.63 L 559.04 636.22 L 559.57 635.71 L 559.99 635.32 L 560.54 634.83 L 560.96 634.46 L 561.54 633.98 L 561.97 633.63 L 562.58 633.16 L 563.01 632.84 L 563.64 632.37 L 564.07 632.08 L 564.75 631.60 L 565.13 631.34 L 565.96 630.82 L 566.23 630.65 L 568.49 629.36 L 568.83 629.17 L 569.64 628.75 L 570.08 628.54 L 570.82 628.19 L 571.30 627.98 L 572.00 627.67 L 572.51 627.45 L 573.21 627.17 L 573.75 626.98 L 574.45 626.72 L 574.98 626.54 L 575.68 626.31 L 576.23 626.14 L 576.93 625.95 L 577.50 625.79 L 578.20 625.61 L 578.76 625.47 L 579.46 625.31 L 580.04 625.20 L 580.76 625.07 L 581.33 624.97 L 582.06 624.86 L 582.62 624.78 L 583.38 624.69 L 583.93 624.64 L 584.73 624.57 L 585.25 624.52 L 586.14 624.48 L 586.57 624.47 L 587.89 624.44 L 589.21 624.47 L 589.66 624.48 L 590.55 624.52 L 591.07 624.57 L 591.87 624.64 L 592.42 624.69 L 593.18 624.78 L 593.74 624.86 L 594.47 624.97 L 595.04 625.07 L 595.76 625.20 L 596.34 625.31 L 597.04 625.47 L 597.61 625.61 L 598.32 625.79 L 598.88 625.95 L 599.58 626.14 L 600.13 626.31 L 600.83 626.54 L 601.38 626.72 L 602.07 626.98 L 602.60 627.17 L 603.30 627.45 L 603.81 627.67 L 604.51 627.98 L 604.99 628.19 L 605.73 628.54 L 606.17 628.75 L 606.99 629.17 L 607.32 629.36 L 609.58 630.65 L 609.85 630.82 L 610.68 631.34 L 611.06 631.60 L 611.76 632.08 L 612.17 632.37 L 612.80 632.84 L 613.22 633.16 L 613.83 633.63 L 614.26 633.98 L 614.84 634.46 L 615.26 634.83 L 615.82 635.32 L 616.24 635.70 L 616.78 636.21 L 617.18 636.62 L 617.70 637.14 L 618.10 637.55 L 618.60 638.10 L 618.98 638.52 L 619.47 639.08 L 619.84 639.52 L 620.32 640.11 L 620.67 640.55 L 621.13 641.17 L 621.46 641.61 L 621.92 642.27 L 622.21 642.69 L 622.27 642.78 L 622.24 642.80 L 622.02 643.04 L 620.49 644.62 L 619.87 645.20 L 618.65 646.33 L 617.89 646.96 L 616.72 647.92 L 615.88 648.55 L 614.73 649.40 L 613.81 650.02 L 612.65 650.78 L 611.69 651.36 L 610.51 652.04 L 609.51 652.57 L 608.31 653.18 L 607.28 653.66 L 606.04 654.19 L 604.99 654.61 L 603.73 655.09 L 602.66 655.46 L 601.37 655.87 L 600.28 656.18 L 598.95 656.52 L 597.88 656.77 L 596.48 657.04 L 595.42 657.24 L 593.93 657.45 L 592.94 657.57 L 591.26 657.72 L 590.42 657.79 L 587.89 657.86 L 585.39 657.86 L 585.39 657.86 Z" fill="#5b5b5d" fill-rule="nonzero" group-id="1,4" id="形状" node-id="22" stroke="none" target-height="108.25" target-width="107.900024" target-x="533.97" target-y="556.81"></path><path d="M 1056.11 225.76 C 1054.06 227.85 1052.12 230.32 1050.30 233.16 C 1047.55 237.46 1046.05 242.44 1045.98 247.54 C 1045.77 262.60 1057.76 274.97 1072.77 275.18 L 1074.68 275.10 C 1087.29 273.90 1100.70 259.82 1103.46 248.30 C 1109.68 222.38 1075.86 205.58 1056.11 225.76 Z M 1095.10 246.28 C 1093.13 254.49 1082.45 265.69 1074.09 266.49 L 1072.65 266.55 C 1062.64 266.40 1054.44 257.95 1054.58 247.66 C 1054.63 244.17 1055.65 240.77 1057.54 237.84 C 1059.05 235.47 1060.63 233.46 1062.25 231.81 C 1075.69 218.07 1097.92 228.55 1095.38 244.86 L 1095.10 246.28 Z" fill="#555555" fill-rule="nonzero" group-id="1" id="路径-3备份" node-id="23" stroke="none" target-height="69.59999" target-width="63.910034" target-x="1045.77" target-y="205.58"></path><path d="M 1196.50 221.68 L 1193.18 221.70 L 1189.76 222.07 L 1186.47 222.83 L 1183.29 223.98 L 1180.26 225.51 L 1177.45 227.39 L 1174.84 229.63 L 1172.25 232.51 L 1170.15 235.57 L 1168.51 238.83 L 1167.31 242.28 L 1166.57 245.78 L 1166.28 249.37 L 1166.45 252.96 L 1167.07 256.49 L 1168.16 259.96 L 1169.69 263.27 L 1171.68 266.39 L 1174.17 269.34 L 1175.59 270.68 L 1178.34 272.67 L 1181.42 274.36 L 1184.88 275.73 L 1188.47 276.75 L 1192.18 277.45 L 1196.02 277.84 L 1199.88 277.92 L 1203.58 277.69 L 1207.15 277.17 L 1210.65 276.33 L 1213.72 275.23 L 1216.42 273.89 L 1219.20 272.00 L 1221.53 269.95 L 1223.45 267.75 L 1225.00 265.38 L 1226.59 261.93 L 1227.58 258.33 L 1227.99 254.55 L 1227.86 250.73 L 1227.20 246.92 L 1226.02 243.08 L 1224.37 239.42 L 1222.27 235.95 L 1219.70 232.66 L 1216.75 229.71 L 1213.41 227.15 L 1209.65 224.97 L 1206.68 223.67 L 1203.51 222.69 L 1200.12 222.02 L 1196.50 221.68 Z M 1212.08 266.46 L 1210.15 267.40 L 1207.88 268.18 L 1205.21 268.78 L 1201.09 269.25 L 1196.67 269.25 L 1192.28 268.76 L 1188.16 267.77 L 1185.53 266.80 L 1183.28 265.62 L 1181.34 264.24 L 1180.22 263.18 L 1178.03 260.45 L 1176.44 257.53 L 1175.40 254.39 L 1174.92 251.11 L 1174.98 247.84 L 1175.61 244.56 L 1176.78 241.43 L 1178.51 238.52 L 1180.83 235.81 L 1183.60 233.57 L 1186.69 231.89 L 1190.02 230.80 L 1193.54 230.31 L 1196.16 230.30 L 1199.31 230.63 L 1202.21 231.28 L 1204.87 232.24 L 1207.34 233.50 L 1210.39 235.62 L 1212.99 238.05 L 1215.19 240.81 L 1216.97 243.85 L 1218.25 246.95 L 1219.04 250.13 L 1219.32 253.38 L 1219.05 256.45 L 1218.23 259.38 L 1217.24 261.42 L 1215.91 263.26 L 1214.20 264.94 L 1212.08 266.46 Z" fill="#555555" fill-rule="nonzero" group-id="1,5" id="路径-3备份-2" node-id="24" stroke="none" target-height="56.24002" target-width="61.70996" target-x="1166.28" target-y="221.68"></path><path d="M 1176.91 828.55 L 1186.01 829.20 C 1194.94 829.83 1204.27 833.54 1214.00 839.95 L 1216.67 841.77 L 1222.98 846.21 L 1222.98 853.94 C 1222.98 859.15 1221.44 864.32 1218.21 872.29 C 1215.81 878.21 1213.20 883.15 1210.44 886.76 L 1209.25 888.23 L 1203.17 895.27 L 1194.20 892.84 C 1184.52 890.22 1175.97 886.40 1168.51 881.16 L 1165.77 879.13 L 1158.88 873.76 L 1160.23 865.10 C 1161.37 857.75 1164.79 849.45 1170.47 839.47 L 1172.24 836.42 L 1176.91 828.55 Z M 1196.68 684.33 C 1235.26 684.33 1257.89 704.49 1257.89 740.51 C 1257.89 761.70 1241.76 783.72 1210.37 809.43 L 1207.07 812.10 L 1200.07 817.71 L 1191.87 814.09 C 1181.87 809.69 1175.09 803.01 1172.99 793.60 L 1172.61 791.54 L 1171.43 783.49 L 1179.98 776.04 L 1184.55 771.92 L 1188.75 767.99 L 1192.58 764.27 C 1193.19 763.67 1193.78 763.07 1194.36 762.49 L 1197.64 759.08 C 1198.16 758.54 1198.66 758.00 1199.15 757.47 L 1201.88 754.41 L 1204.25 751.60 L 1206.26 749.05 C 1206.56 748.65 1206.85 748.26 1207.12 747.87 L 1208.58 745.73 C 1210.06 743.38 1210.81 741.62 1210.81 740.51 C 1210.81 733.25 1208.51 731.29 1197.37 731.29 C 1189.07 731.29 1179.37 737.44 1168.66 751.14 L 1166.77 753.64 L 1159.52 763.40 L 1148.55 758.20 C 1140.16 754.22 1134.13 749.22 1131.08 742.36 L 1130.33 740.45 L 1128.35 734.75 L 1130.89 729.28 C 1136.80 716.54 1145.59 705.82 1156.70 697.82 C 1168.79 688.94 1182.40 684.33 1196.68 684.33 Z" fill="#ff4848" fill-rule="nonzero" group-id="1" id="？" node-id="25" stroke="none" target-height="210.94" target-width="129.54004" target-x="1128.35" target-y="684.33"></path></g></svg>